<svg width="699" height="194" viewBox="0 0 699 194" fill="none" xmlns="http://www.w3.org/2000/svg">
<path d="M698.869 96.8673C699.067 90.8933 696.88 84.9194 692.4 80.5393L617.832 6.37264C609.27 -2.18989 595.431 -2.09096 586.868 6.4716C578.306 15.0342 578.405 28.8729 586.967 37.4356L623.905 74.2689H22.6914C10.5455 74.2689 0.790039 84.0241 0.790039 96.1703C0.790039 108.316 10.5452 118.072 22.6914 118.072H625.398L587.267 156.202C578.705 164.765 578.705 178.604 587.267 187.166C591.549 191.447 597.122 193.536 602.798 193.536C608.371 193.536 614.048 191.447 618.329 187.166L692.495 113C696.876 108.515 698.969 102.645 698.87 96.8689L698.869 96.8673Z" fill="#4C5FD5"/>
</svg>
